<?xml version="1.0" encoding="UTF-8"?>
<svg id="Layer_1" xmlns="http://www.w3.org/2000/svg" version="1.1" viewBox="0 0 1417.32 1417.32">
  <!-- Generator: Adobe Illustrator 29.6.0, SVG Export Plug-In . SVG Version: 2.1.1 Build 207)  -->
  <defs>
    <style>
      .st0 {
        fill: #47af60;
      }

      .st1, .st2 {
        fill: #fff;
      }

      .st2 {
        font-family: EuclidCircularB-Medium, 'Euclid Circular B';
        font-size: 189.32px;
        font-weight: 500;
      }
    </style>
  </defs>
  <rect class="st0" width="1417.32" height="1417.32"/>
  <g>
    <g>
      <path class="st1" d="M1043.77,876.22h-342.73v-483.94h312.12c100.74,0,155.43,62.78,155.43,137.08,0,33.34-16.8,67.42-42.58,93.2,37.99,20.06,70.56,65.26,70.56,112.39,0,82.91-64.72,141.27-152.79,141.27ZM820.65,778.87h206.84c28.98,0,48.06-21.43,48.06-47.78v-.77c0-26.34-19.08-47.78-48.06-47.78h-206.84v96.33ZM820.65,585.19h176.95c31.32,0,49.97-21.43,49.97-47.78s-17.49-47.78-49.97-47.78h-176.95v95.56Z"/>
      <path class="st1" d="M490.7,876.22h-253.26v-483.94h222.64c100.74,0,155.43,62.78,155.43,137.08,0,33.34-16.8,67.42-42.58,93.2,37.99,20.06,70.56,65.26,70.56,112.39,0,82.91-64.72,141.27-152.79,141.27ZM357.05,778.87h117.37c28.98,0,48.06-21.43,48.06-47.78v-.77c0-26.34-19.08-47.78-48.06-47.78h-117.37v96.33ZM357.05,585.19h87.48c31.32,0,49.97-21.43,49.97-47.78s-17.49-47.78-49.97-47.78h-87.48v95.56Z"/>
    </g>
    <text class="st2" transform="translate(220.76 1064.08) scale(.99 1)"><tspan x="0" y="0">Казахстан</tspan></text>
  </g>
</svg>